<?xml version="1.0" encoding="utf-8"?>
<!-- Generator: Adobe Illustrator 25.0.1, SVG Export Plug-In . SVG Version: 6.00 Build 0)  -->
<svg version="1.1" id="Layer_1" xmlns="http://www.w3.org/2000/svg" xmlns:xlink="http://www.w3.org/1999/xlink" x="0px" y="0px"
	 viewBox="0 0 70.87 64.21" style="enable-background:new 0 0 70.87 64.21;" xml:space="preserve">
<style type="text/css">
	.st0{fill:#E65E5E;}
</style>
<path class="st0" d="M59.29,35.92c-2.22,1.51-4.35,2.99-6.52,4.4c-0.5,0.33-1.24,0.68-1.73,0.54c-0.59-0.17-1.3-0.8-1.45-1.36
	c-0.14-0.55,0.21-1.41,0.62-1.88c0.53-0.62,1.34-0.99,2.04-1.47c2.67-1.85,5.34-3.69,8.01-5.53c1.1-0.76,2.15-0.65,2.92,0.47
	c2.35,3.39,4.65,6.81,6.94,10.25c0.62,0.94,0.38,1.83-0.56,2.5c-0.94,0.69-1.79,0.66-2.52-0.28c-0.96-1.23-1.79-2.56-2.68-3.84
	c-0.48-0.69-0.95-1.38-1.56-2.27c-0.2,0.77-0.35,1.35-0.5,1.93c-3.15,12.86-13.53,22.2-26.59,23.94
	C19.38,65.48,3.65,53.74,0.87,37.53C-2.06,20.44,9.2,4.24,26.35,1.12c12.19-2.22,25.06,3.4,31.81,13.91
	c0.26,0.4,0.52,0.81,0.77,1.22c0.67,1.13,0.49,2.06-0.52,2.69c-0.94,0.58-1.88,0.35-2.54-0.74c-1.73-2.88-3.81-5.46-6.46-7.53
	c-8.18-6.36-17.28-8.1-27-4.49C12.66,9.78,6.61,16.94,4.75,27.22c-2.8,15.49,7.53,29.9,23.12,32.25
	C44.04,61.91,57.46,50.12,59.29,35.92z"/>
</svg>
